<?xml version="1.0" encoding="utf-8" standalone="no"?>
<!DOCTYPE svg PUBLIC "-//W3C//DTD SVG 1.1//EN"
  "http://www.w3.org/Graphics/SVG/1.1/DTD/svg11.dtd">
<svg xmlns:xlink="http://www.w3.org/1999/xlink" width="576pt" height="288pt" viewBox="0 0 576 288" xmlns="http://www.w3.org/2000/svg" version="1.1">
 <metadata>
  <rdf:RDF xmlns:dc="http://purl.org/dc/elements/1.1/" xmlns:cc="http://creativecommons.org/ns#" xmlns:rdf="http://www.w3.org/1999/02/22-rdf-syntax-ns#">
   <cc:Work>
    <dc:type rdf:resource="http://purl.org/dc/dcmitype/StillImage"/>
    <dc:date>2023-07-30T17:45:02.352803</dc:date>
    <dc:format>image/svg+xml</dc:format>
    <dc:creator>
     <cc:Agent>
      <dc:title>Matplotlib v3.5.3, https://matplotlib.org/</dc:title>
     </cc:Agent>
    </dc:creator>
   </cc:Work>
  </rdf:RDF>
 </metadata>
 <defs>
  <style type="text/css">*{stroke-linejoin: round; stroke-linecap: butt}</style>
 </defs>
 <g id="figure_1">
  <g id="patch_1">
   <path d="M 0 288 
L 576 288 
L 576 0 
L 0 0 
z
" style="fill: #ffffff"/>
  </g>
  <g id="axes_1">
   <g id="line2d_1">
    <path d="M 92.290909 170.791062 
L 93.920701 170.638642 
L 95.550493 169.424734 
L 97.180285 168.436731 
L 98.810077 168.736121 
L 102.06966 170.249421 
L 103.699452 167.821604 
L 105.329244 167.437831 
L 106.959036 166.071503 
L 108.588828 164.936528 
L 110.21862 166.444379 
L 111.848412 166.359997 
L 113.478204 163.474921 
L 116.737788 159.375937 
L 118.367579 158.230065 
L 119.997371 156.169677 
L 121.627163 153.804448 
L 123.256955 153.483264 
L 124.886747 149.158375 
L 128.146331 145.26895 
L 129.776123 145.878629 
L 131.405915 142.525397 
L 133.035706 141.763299 
L 134.665498 140.549391 
L 136.29529 140.549391 
L 137.925082 140.927716 
L 141.184666 141.311489 
L 142.814458 141.548291 
L 144.44425 142.089932 
L 146.074042 143.614128 
L 147.703834 144.828037 
L 149.333625 145.81604 
L 150.963417 146.425718 
L 152.593209 146.888426 
L 154.223001 147.503553 
L 155.852793 146.227055 
L 157.482585 145.475854 
L 159.112377 145.859627 
L 160.742169 146.469306 
L 162.371961 144.204805 
L 164.001752 142.239696 
L 165.631544 142.16621 
L 167.261336 143.075279 
L 168.891128 145.723553 
L 170.52092 147.462758 
L 173.780504 147.993502 
L 175.410296 147.389272 
L 177.040088 147.767597 
L 178.66988 147.993502 
L 180.299671 149.506801 
L 181.929463 150.867681 
L 183.559255 150.489356 
L 185.189047 150.336936 
L 186.818839 149.580287 
L 188.448631 150.715261 
L 190.078423 151.545396 
L 191.708215 151.923721 
L 193.338007 153.662926 
L 194.967798 153.358086 
L 196.59759 155.097291 
L 199.857174 154.944871 
L 203.116758 152.212215 
L 204.74655 152.212215 
L 206.376342 152.968865 
L 208.006134 153.04235 
L 209.635926 155.385785 
L 211.265717 154.550201 
L 212.895509 153.940523 
L 214.525301 151.891031 
L 216.155093 149.079441 
L 217.784885 147.62873 
L 219.414677 148.001606 
L 221.044469 150.587291 
L 224.304053 144.896074 
L 225.933844 144.207462 
L 227.563636 145.494856 
L 229.193428 148.295549 
L 230.82322 148.069644 
L 232.453012 148.752808 
L 234.082804 148.222063 
L 235.712596 148.143129 
L 237.342388 148.899779 
L 238.97218 139.656667 
L 242.231763 107.183322 
L 243.861555 89.334019 
L 245.491347 67.627982 
L 247.121139 47.876158 
L 248.750931 44.64 
L 250.380723 56.153061 
L 252.010515 79.241771 
L 253.640307 95.104171 
L 255.270099 108.544202 
L 256.89989 118.663692 
L 258.529682 127.533928 
L 260.159474 133.072726 
L 261.789266 137.922911 
L 263.419058 137.386718 
L 265.04885 138.753046 
L 266.678642 140.723604 
L 268.308434 143.145973 
L 269.938226 145.347884 
L 271.568018 149.678222 
L 273.197809 155.301402 
L 274.827601 158.954025 
L 276.457393 162.065005 
L 278.087185 161.155936 
L 279.716977 157.960573 
L 281.346769 156.594245 
L 282.976561 155.990015 
L 284.606353 158.118441 
L 286.236145 159.326901 
L 287.865936 160.99262 
L 289.495728 162.285462 
L 291.12552 162.979523 
L 292.755312 163.063905 
L 294.385104 165.491722 
L 296.014896 164.735073 
L 297.644688 165.339303 
L 299.27448 163.521164 
L 300.904272 164.814007 
L 302.534064 164.740521 
L 304.163855 164.966426 
L 305.793647 166.936984 
L 309.053231 164.724176 
L 310.683023 161.613195 
L 312.312815 160.320353 
L 313.942607 161.077002 
L 317.202191 163.589201 
L 318.831982 164.356748 
L 320.461774 164.819455 
L 322.091566 164.971875 
L 323.721358 163.600098 
L 325.35115 163.058457 
L 326.980942 162.065005 
L 328.610734 162.065005 
L 330.240526 161.381841 
L 331.870318 159.710674 
L 333.50011 156.741216 
L 335.129901 156.351994 
L 336.759693 156.267612 
L 338.389485 153.529507 
L 340.019277 149.8034 
L 343.278861 141.278798 
L 344.908653 139.975059 
L 346.538445 139.128579 
L 348.168237 136.164569 
L 349.798028 131.828783 
L 351.42782 128.633419 
L 353.057612 127.487548 
L 354.687404 128.402066 
L 356.317196 129.615974 
L 357.946988 130.146719 
L 359.57678 128.255095 
L 361.206572 127.577379 
L 362.836364 128.644316 
L 364.466156 127.808733 
L 366.095947 131.613774 
L 367.725739 133.295839 
L 369.355531 135.209256 
L 370.985323 136.812386 
L 372.615115 139.471557 
L 374.244907 139.860779 
L 375.874699 142.824788 
L 377.504491 145.195465 
L 379.134283 146.956463 
L 380.764074 145.979357 
L 382.393866 144.161218 
L 384.023658 142.568985 
L 385.65345 143.703959 
L 387.283242 143.556988 
L 388.913034 142.952758 
L 390.542826 141.360525 
L 392.172618 139.536938 
L 393.80241 138.77484 
L 397.061993 139.311033 
L 398.691785 137.340475 
L 400.321577 135.748241 
L 401.951369 135.14946 
L 403.581161 134.850069 
L 405.210953 135.380813 
L 406.840745 135.002489 
L 408.470537 133.110865 
L 410.100329 133.641609 
L 411.73012 134.629612 
L 413.359912 136.311676 
L 414.989704 138.513588 
L 416.619496 138.366617 
L 418.249288 138.366617 
L 419.87908 138.897361 
L 421.508872 138.445551 
L 423.138664 139.123266 
L 424.768456 141.793334 
L 426.398248 143.31753 
L 428.028039 145.067631 
L 429.657831 145.824281 
L 431.287623 147.49 
L 432.917415 147.94181 
L 434.547207 149.455109 
L 436.176999 150.290693 
L 437.806791 150.217207 
L 439.436583 149.612977 
L 441.066375 150.900371 
L 442.696166 153.475159 
L 444.325958 154.993907 
L 445.95575 155.372232 
L 447.585542 154.841487 
L 449.215334 154.536648 
L 450.845126 155.372232 
L 452.474918 158.251859 
L 454.10471 159.239862 
L 455.734502 160.075446 
L 457.364294 160.00196 
L 458.994085 160.15438 
L 460.623877 160.532705 
L 462.253669 162.198424 
L 463.883461 163.107493 
L 465.513253 163.107493 
L 468.772837 162.429777 
L 470.402629 163.191875 
L 472.032421 164.32685 
L 473.662212 165.845597 
L 478.551588 164.258813 
L 480.18138 165.924531 
L 481.811172 165.924531 
L 483.440964 166.302856 
L 485.070756 164.710623 
L 486.700548 164.710623 
L 488.33034 164.563652 
L 489.960131 165.546207 
L 491.589923 164.405784 
L 493.219715 164.332298 
L 494.849507 165.167882 
L 496.479299 165.094396 
L 498.109091 165.851046 
L 498.109091 165.851046 
" clip-path="url(#p862100c630)" style="fill: none; stroke: #1f77b4; stroke-width: 1.5; stroke-linecap: round"/>
   </g>
   <g id="line2d_2">
    <path d="M 92.290909 193.07068 
L 93.920701 190.294373 
L 95.550493 185.315786 
L 97.180285 184.741759 
L 98.810077 179.857003 
L 100.439869 185.315786 
L 102.06966 187.998262 
L 103.699452 187.998262 
L 105.329244 186.37001 
L 106.959036 190.680738 
L 108.588828 192.883017 
L 110.21862 192.30899 
L 111.848412 194.897634 
L 113.478204 188.770992 
L 115.107996 190.399244 
L 116.737788 185.994685 
L 118.367579 186.474881 
L 119.997371 182.64435 
L 121.627163 187.048909 
L 123.256955 194.229775 
L 124.886747 189.532683 
L 126.516539 189.052486 
L 128.146331 192.883017 
L 129.776123 196.139521 
L 131.405915 197.193745 
L 133.035706 205.8152 
L 134.665498 198.341801 
L 136.29529 199.970052 
L 137.925082 203.226556 
L 139.554874 201.118108 
L 141.184666 201.598304 
L 142.814458 199.396025 
L 144.44425 199.396025 
L 146.074042 202.652528 
L 149.333625 200.54408 
L 150.963417 202.652528 
L 152.593209 197.193745 
L 154.223001 194.991466 
L 155.852793 194.511269 
L 157.482585 192.883017 
L 159.112377 192.883017 
L 160.742169 185.795983 
L 162.371961 184.167731 
L 164.001752 183.593703 
L 165.631544 185.221955 
L 167.261336 184.83559 
L 168.891128 185.221955 
L 170.52092 185.128123 
L 172.150712 184.647927 
L 173.780504 186.276179 
L 175.410296 187.424234 
L 177.040088 192.402821 
L 178.66988 190.10671 
L 180.299671 194.417438 
L 183.559255 192.30899 
L 185.189047 196.713549 
L 186.818839 195.085297 
L 188.448631 199.396025 
L 190.078423 197.287577 
L 193.338007 199.489856 
L 194.967798 199.489856 
L 196.59759 200.063884 
L 198.227382 201.118108 
L 199.857174 201.118108 
L 201.486966 202.74636 
L 203.116758 206.576891 
L 204.74655 208.205143 
L 206.376342 206.190526 
L 208.006134 211.169113 
L 209.635926 216.534064 
L 211.265717 214.425616 
L 214.525301 212.035674 
L 216.155093 207.724946 
L 217.784885 214.905813 
L 219.414677 213.94542 
L 221.044469 216.241531 
L 222.674261 206.284357 
L 224.304053 201.785967 
L 225.933844 193.07068 
L 227.563636 202.934022 
L 229.193428 202.453826 
L 230.82322 202.934022 
L 232.453012 190.868401 
L 234.082804 184.261562 
L 235.712596 179.282976 
L 237.342388 187.424234 
L 238.97218 184.647927 
L 240.601972 184.073899 
L 242.231763 186.944038 
L 243.861555 189.240149 
L 245.491347 197.861604 
L 247.121139 216.440233 
L 248.750931 226.314614 
L 250.380723 242.023104 
L 252.010515 246.24 
L 253.640307 234.26821 
L 255.270099 224.780194 
L 258.529682 212.504831 
L 260.159474 201.399602 
L 261.789266 191.348597 
L 263.419058 190.200542 
L 265.04885 194.124904 
L 266.678642 200.731743 
L 268.308434 201.692136 
L 269.938226 203.988247 
L 271.568018 200.251547 
L 273.197809 201.879798 
L 274.827601 201.118108 
L 276.457393 207.537283 
L 278.087185 206.963256 
L 279.716977 204.374611 
L 281.346769 195.179128 
L 282.976561 199.583687 
L 284.606353 207.338581 
L 286.236145 213.94542 
L 287.865936 216.815559 
L 289.495728 215.948998 
L 291.12552 206.179487 
L 292.755312 208.381767 
L 294.385104 208.955794 
L 296.014896 212.212298 
L 297.644688 206.273318 
L 299.27448 198.706087 
L 300.904272 200.334339 
L 302.534064 200.908367 
L 304.163855 204.16487 
L 305.793647 205.793122 
L 307.423439 202.536619 
L 309.053231 202.056422 
L 310.683023 200.041806 
L 312.312815 206.554813 
L 313.942607 209.811316 
L 315.572399 214.215875 
L 317.202191 211.439568 
L 318.831982 210.771709 
L 320.461774 209.049626 
L 322.091566 205.219094 
L 323.721358 207.807739 
L 325.35115 206.659683 
L 326.980942 206.179487 
L 328.610734 206.753515 
L 330.240526 204.645067 
L 331.870318 211.251905 
L 333.50011 211.251905 
L 335.129901 214.988605 
L 336.759693 213.84055 
L 338.389485 213.360353 
L 340.019277 216.710688 
L 341.649069 221.689275 
L 343.278861 223.317527 
L 344.908653 219.967192 
L 346.538445 218.819136 
L 348.168237 219.967192 
L 349.798028 218.912968 
L 351.42782 220.635051 
L 353.057612 226.187666 
L 354.687404 223.50519 
L 356.317196 224.079217 
L 357.946988 225.707469 
L 359.57678 222.357134 
L 361.206572 218.526603 
L 362.836364 218.526603 
L 364.466156 215.844127 
L 366.095947 209.717485 
L 367.725739 209.717485 
L 369.355531 204.16487 
L 370.985323 204.16487 
L 372.615115 201.962591 
L 374.244907 207.90157 
L 375.874699 204.645067 
L 377.504491 203.684674 
L 379.134283 202.150254 
L 380.764074 202.63045 
L 382.393866 196.409976 
L 384.023658 197.850565 
L 385.65345 198.810958 
L 387.283242 198.049267 
L 388.913034 189.240149 
L 390.542826 194.605101 
L 392.172618 189.626514 
L 393.80241 197.193745 
L 397.061993 194.991466 
L 398.691785 192.789186 
L 400.321577 194.991466 
L 401.951369 195.659325 
L 403.581161 195.565493 
L 405.210953 198.154138 
L 406.840745 195.858027 
L 408.470537 194.229775 
L 410.100329 197.58011 
L 411.73012 204.760976 
L 413.359912 209.165535 
L 414.989704 216.346401 
L 416.619496 214.331785 
L 418.249288 214.999644 
L 419.87908 217.295755 
L 421.508872 215.761335 
L 423.138664 219.591866 
L 424.768456 218.830175 
L 426.398248 216.627896 
L 428.028039 211.743141 
L 429.657831 205.71033 
L 431.287623 201.879798 
L 432.917415 204.562274 
L 434.547207 205.804161 
L 436.176999 202.067461 
L 437.806791 197.662902 
L 439.436583 190.962232 
L 442.696166 194.406399 
L 444.325958 195.460623 
L 445.95575 192.778147 
L 447.585542 189.615475 
L 449.215334 191.911586 
L 450.845126 189.135279 
L 452.474918 195.074258 
L 454.10471 197.276538 
L 455.734502 202.255124 
L 457.364294 197.944397 
L 458.994085 196.316145 
L 460.623877 201.2009 
L 463.883461 203.40318 
L 465.513253 204.551235 
L 467.143045 201.868759 
L 468.772837 195.355752 
L 470.402629 198.518424 
L 472.032421 202.161293 
L 473.662212 201.587265 
L 475.292004 201.587265 
L 476.921796 197.182706 
L 478.551588 194.980427 
L 480.18138 197.182706 
L 481.811172 206.952217 
L 483.440964 213.078859 
L 485.070756 207.713907 
L 486.700548 210.010018 
L 488.33034 207.90157 
L 489.960131 211.825933 
L 491.589923 221.209079 
L 493.219715 221.115247 
L 494.849507 214.988605 
L 496.479299 206.179487 
L 498.109091 198.518424 
L 498.109091 198.518424 
" clip-path="url(#p862100c630)" style="fill: none; stroke: #ff7f0e; stroke-width: 1.5; stroke-linecap: round"/>
   </g>
   <g id="legend_1">
    <g id="patch_2">
     <path d="M 507.4 47.56 
L 511.4 47.56 
Q 513.4 47.56 513.4 45.56 
L 513.4 41.56 
Q 513.4 39.56 511.4 39.56 
L 507.4 39.56 
Q 505.4 39.56 505.4 41.56 
L 505.4 45.56 
Q 505.4 47.56 507.4 47.56 
z
" style="fill: #ffffff; opacity: 0.8; stroke: #cccccc; stroke-linejoin: miter"/>
    </g>
   </g>
  </g>
 </g>
 <defs>
  <clipPath id="p862100c630">
   <rect x="72" y="34.56" width="446.4" height="221.76"/>
  </clipPath>
 </defs>
</svg>
