<?xml version="1.0" encoding="utf-8" standalone="no"?>
<!DOCTYPE svg PUBLIC "-//W3C//DTD SVG 1.1//EN"
  "http://www.w3.org/Graphics/SVG/1.1/DTD/svg11.dtd">
<svg xmlns:xlink="http://www.w3.org/1999/xlink" width="576pt" height="288pt" viewBox="0 0 576 288" xmlns="http://www.w3.org/2000/svg" version="1.1">
 <metadata>
  <rdf:RDF xmlns:dc="http://purl.org/dc/elements/1.1/" xmlns:cc="http://creativecommons.org/ns#" xmlns:rdf="http://www.w3.org/1999/02/22-rdf-syntax-ns#">
   <cc:Work>
    <dc:type rdf:resource="http://purl.org/dc/dcmitype/StillImage"/>
    <dc:date>2023-07-30T17:52:57.485024</dc:date>
    <dc:format>image/svg+xml</dc:format>
    <dc:creator>
     <cc:Agent>
      <dc:title>Matplotlib v3.5.3, https://matplotlib.org/</dc:title>
     </cc:Agent>
    </dc:creator>
   </cc:Work>
  </rdf:RDF>
 </metadata>
 <defs>
  <style type="text/css">*{stroke-linejoin: round; stroke-linecap: butt}</style>
 </defs>
 <g id="figure_1">
  <g id="patch_1">
   <path d="M 0 288 
L 576 288 
L 576 0 
L 0 0 
z
" style="fill: #ffffff"/>
  </g>
  <g id="axes_1">
   <g id="line2d_1">
    <path d="M 92.290909 246.24 
L 93.920701 245.874944 
L 95.550493 244.779776 
L 97.180285 243.319552 
L 98.810077 242.224384 
L 102.06966 242.224384 
L 103.699452 240.034048 
L 105.329244 238.208768 
L 106.959036 236.748544 
L 108.588828 236.748544 
L 110.21862 234.923265 
L 111.848412 232.002817 
L 113.478204 228.717313 
L 116.737788 224.336641 
L 118.367579 220.686081 
L 119.997371 214.845186 
L 123.256955 202.068226 
L 124.886747 198.05261 
L 126.516539 192.576771 
L 128.146331 187.831043 
L 129.776123 189.291267 
L 131.405915 181.260035 
L 133.035706 179.434755 
L 134.665498 178.339588 
L 137.925082 178.339588 
L 139.554874 178.704643 
L 141.184666 180.164867 
L 142.814458 183.450371 
L 144.44425 187.465987 
L 146.074042 191.116547 
L 147.703834 192.211715 
L 150.963417 195.132163 
L 152.593209 198.05261 
L 155.852793 204.623618 
L 159.112377 208.274178 
L 160.742169 209.734402 
L 162.371961 211.559682 
L 165.631544 213.019906 
L 167.261336 213.384962 
L 168.891128 213.384962 
L 172.150712 212.65485 
L 173.780504 213.384962 
L 175.410296 213.750018 
L 177.040088 213.750018 
L 178.66988 213.384962 
L 180.299671 213.384962 
L 181.929463 213.019906 
L 183.559255 213.019906 
L 185.189047 212.65485 
L 188.448631 212.65485 
L 190.078423 211.924738 
L 191.708215 211.924738 
L 193.338007 211.559682 
L 194.967798 210.82957 
L 196.59759 210.464514 
L 198.227382 211.194626 
L 199.857174 210.099458 
L 203.116758 207.17901 
L 206.376342 207.17901 
L 209.635926 205.718786 
L 211.265717 204.623618 
L 212.895509 203.163394 
L 214.525301 200.973058 
L 216.155093 196.957443 
L 217.784885 192.576771 
L 219.414677 190.751491 
L 221.044469 195.132163 
L 222.674261 192.941827 
L 224.304053 189.656323 
L 225.933844 187.100931 
L 230.82322 188.196099 
L 232.453012 188.926211 
L 234.082804 188.561155 
L 235.712596 187.465987 
L 237.342388 187.465987 
L 238.97218 183.450371 
L 240.601972 179.069699 
L 242.231763 179.069699 
L 243.861555 181.625091 
L 245.491347 184.910595 
L 247.121139 183.815427 
L 248.750931 189.656323 
L 250.380723 193.671939 
L 252.010515 197.322499 
L 255.270099 178.704643 
L 256.89989 172.133636 
L 258.529682 177.974532 
L 260.159474 183.085315 
L 261.789266 185.640707 
L 263.419058 183.450371 
L 265.04885 184.910595 
L 266.678642 186.005763 
L 268.308434 186.370819 
L 269.938226 188.926211 
L 271.568018 194.767107 
L 273.197809 202.798338 
L 274.827601 209.734402 
L 276.457393 212.65485 
L 278.087185 212.289794 
L 279.716977 206.448898 
L 281.346769 204.988674 
L 282.976561 205.35373 
L 284.606353 208.639234 
L 286.236145 207.909122 
L 287.865936 208.274178 
L 289.495728 210.464514 
L 291.12552 214.845186 
L 292.755312 217.765633 
L 294.385104 219.955969 
L 296.014896 219.955969 
L 297.644688 219.590913 
L 299.27448 218.860801 
L 300.904272 221.051137 
L 302.534064 221.781249 
L 304.163855 221.416193 
L 305.793647 222.511361 
L 307.423439 218.130689 
L 309.053231 216.30541 
L 310.683023 213.384962 
L 312.312815 211.194626 
L 313.942607 211.194626 
L 315.572399 213.384962 
L 317.202191 216.30541 
L 318.831982 219.955969 
L 320.461774 222.876417 
L 322.091566 223.241473 
L 323.721358 219.955969 
L 325.35115 215.940354 
L 326.980942 212.65485 
L 328.610734 212.65485 
L 330.240526 211.924738 
L 331.870318 209.734402 
L 333.50011 203.52845 
L 335.129901 199.87789 
L 336.759693 196.957443 
L 338.389485 192.211715 
L 340.019277 186.005763 
L 341.649069 178.339588 
L 343.278861 169.213188 
L 344.908653 163.372292 
L 346.538445 158.626565 
L 348.168237 154.245893 
L 349.798028 146.579717 
L 351.42782 140.738821 
L 353.057612 137.088262 
L 354.687404 139.278598 
L 356.317196 140.373765 
L 357.946988 140.738821 
L 359.57678 140.738821 
L 361.206572 141.833989 
L 362.836364 144.389381 
L 364.466156 143.294213 
L 366.095947 150.595333 
L 367.725739 156.436229 
L 369.355531 163.737348 
L 370.985323 168.483076 
L 374.244907 175.784196 
L 375.874699 180.164867 
L 377.504491 188.561155 
L 379.134283 195.497219 
L 380.764074 197.687555 
L 382.393866 196.957443 
L 384.023658 195.862275 
L 385.65345 195.862275 
L 387.283242 197.322499 
L 388.913034 197.687555 
L 390.542826 196.592387 
L 392.172618 194.036995 
L 393.80241 192.211715 
L 395.432202 191.846659 
L 397.061993 194.402051 
L 400.321577 192.211715 
L 401.951369 194.402051 
L 403.581161 195.497219 
L 405.210953 195.862275 
L 408.470537 195.862275 
L 410.100329 196.227331 
L 411.73012 197.687555 
L 413.359912 203.52845 
L 414.989704 206.083842 
L 416.619496 207.544066 
L 418.249288 207.544066 
L 419.87908 207.909122 
L 421.508872 208.639234 
L 423.138664 207.544066 
L 424.768456 214.845186 
L 426.398248 218.495745 
L 428.028039 221.781249 
L 429.657831 221.781249 
L 431.287623 222.146305 
L 432.917415 221.416193 
L 434.547207 221.416193 
L 436.176999 222.511361 
L 437.806791 223.241473 
L 441.066375 223.971585 
L 442.696166 224.701697 
L 444.325958 226.526977 
L 445.95575 226.526977 
L 447.585542 226.161921 
L 449.215334 225.431809 
L 450.845126 226.526977 
L 454.10471 229.447425 
L 455.734502 230.542593 
L 457.364294 231.272705 
L 458.994085 231.637761 
L 460.623877 231.637761 
L 463.883461 232.367873 
L 467.143045 232.367873 
L 468.772837 233.463041 
L 470.402629 235.288321 
L 472.032421 235.288321 
L 473.662212 237.1136 
L 475.292004 238.573824 
L 478.551588 237.843712 
L 480.18138 238.208768 
L 483.440964 238.208768 
L 485.070756 237.1136 
L 486.700548 237.1136 
L 488.33034 238.573824 
L 489.960131 238.208768 
L 491.589923 236.383489 
L 493.219715 237.1136 
L 494.849507 238.208768 
L 496.479299 238.93888 
L 498.109091 238.93888 
L 498.109091 238.93888 
" clip-path="url(#pddc86f1ea2)" style="fill: none; stroke: #1f77b4; stroke-width: 1.5; stroke-linecap: round"/>
   </g>
   <g id="line2d_2">
    <path d="M 92.290909 73.511597 
L 93.920701 70.761921 
L 95.550493 66.637407 
L 97.180285 65.262569 
L 98.810077 65.262569 
L 100.439869 66.637407 
L 102.06966 65.262569 
L 105.329244 65.262569 
L 106.959036 63.887731 
L 108.588828 65.262569 
L 110.21862 63.887731 
L 111.848412 58.388379 
L 113.478204 51.51419 
L 115.107996 51.51419 
L 118.367579 46.014838 
L 119.997371 44.64 
L 121.627163 47.389676 
L 123.256955 52.889028 
L 124.886747 61.138055 
L 126.516539 63.887731 
L 128.146331 65.262569 
L 129.776123 65.262569 
L 131.405915 63.887731 
L 133.035706 61.138055 
L 134.665498 66.637407 
L 137.925082 66.637407 
L 139.554874 69.387083 
L 141.184666 66.637407 
L 142.814458 65.262569 
L 146.074042 65.262569 
L 149.333625 68.012245 
L 150.963417 65.262569 
L 154.223001 62.512893 
L 155.852793 65.262569 
L 159.112377 65.262569 
L 160.742169 63.887731 
L 162.371961 63.887731 
L 164.001752 62.512893 
L 165.631544 62.512893 
L 167.261336 69.387083 
L 168.891128 62.512893 
L 170.52092 58.388379 
L 172.150712 61.138055 
L 173.780504 61.138055 
L 175.410296 63.887731 
L 177.040088 68.012245 
L 178.66988 62.512893 
L 180.299671 61.138055 
L 183.559255 63.887731 
L 185.189047 66.637407 
L 186.818839 66.637407 
L 188.448631 65.262569 
L 190.078423 68.012245 
L 191.708215 66.637407 
L 193.338007 69.387083 
L 194.967798 69.387083 
L 196.59759 70.761921 
L 198.227382 69.387083 
L 201.486966 69.387083 
L 203.116758 70.761921 
L 204.74655 70.761921 
L 206.376342 77.636111 
L 208.006134 81.760625 
L 209.635926 79.010949 
L 211.265717 81.760625 
L 212.895509 79.010949 
L 214.525301 72.136759 
L 216.155093 73.511597 
L 221.044469 90.009652 
L 222.674261 81.760625 
L 224.304053 74.886435 
L 225.933844 73.511597 
L 227.563636 77.636111 
L 229.193428 80.385787 
L 230.82322 77.636111 
L 232.453012 72.136759 
L 235.712596 63.887731 
L 237.342388 63.887731 
L 238.97218 61.138055 
L 240.601972 59.763217 
L 242.231763 66.637407 
L 243.861555 72.136759 
L 245.491347 69.387083 
L 247.121139 74.886435 
L 248.750931 55.638704 
L 250.380723 54.263866 
L 252.010515 48.764514 
L 253.640307 47.389676 
L 255.270099 59.763217 
L 256.89989 80.385787 
L 258.529682 92.759328 
L 260.159474 81.760625 
L 261.789266 69.387083 
L 263.419058 66.637407 
L 265.04885 72.136759 
L 266.678642 76.261273 
L 268.308434 70.761921 
L 269.938226 76.261273 
L 271.568018 79.010949 
L 273.197809 79.010949 
L 274.827601 69.387083 
L 276.457393 65.262569 
L 278.087185 63.887731 
L 279.716977 69.387083 
L 281.346769 70.761921 
L 282.976561 73.511597 
L 284.606353 80.385787 
L 286.236145 84.510301 
L 287.865936 91.38449 
L 289.495728 101.008356 
L 291.12552 101.008356 
L 294.385104 103.758032 
L 296.014896 103.758032 
L 299.27448 106.507708 
L 300.904272 106.507708 
L 302.534064 107.882546 
L 307.423439 107.882546 
L 309.053231 110.632222 
L 310.683023 117.506411 
L 313.942607 117.506411 
L 315.572399 120.256087 
L 317.202191 117.506411 
L 318.831982 112.00706 
L 320.461774 107.882546 
L 322.091566 106.507708 
L 323.721358 101.008356 
L 325.35115 98.25868 
L 326.980942 101.008356 
L 328.610734 102.383194 
L 330.240526 105.13287 
L 331.870318 109.257384 
L 333.50011 109.257384 
L 336.759693 103.758032 
L 338.389485 106.507708 
L 341.649069 114.756735 
L 343.278861 114.756735 
L 344.908653 110.632222 
L 346.538445 107.882546 
L 348.168237 110.632222 
L 349.798028 112.00706 
L 351.42782 116.131573 
L 353.057612 121.630925 
L 356.317196 124.380601 
L 357.946988 124.380601 
L 359.57678 120.256087 
L 361.206572 118.881249 
L 362.836364 118.881249 
L 364.466156 120.256087 
L 366.095947 113.381897 
L 367.725739 113.381897 
L 369.355531 107.882546 
L 370.985323 107.882546 
L 374.244907 105.13287 
L 375.874699 105.13287 
L 377.504491 110.632222 
L 379.134283 114.756735 
L 380.764074 112.00706 
L 382.393866 101.008356 
L 384.023658 92.759328 
L 385.65345 87.259976 
L 387.283242 77.636111 
L 388.913034 72.136759 
L 390.542826 69.387083 
L 392.172618 65.262569 
L 393.80241 63.887731 
L 395.432202 65.262569 
L 397.061993 62.512893 
L 398.691785 61.138055 
L 400.321577 62.512893 
L 401.951369 68.012245 
L 403.581161 63.887731 
L 406.840745 52.889028 
L 408.470537 52.889028 
L 410.100329 57.013542 
L 411.73012 62.512893 
L 413.359912 65.262569 
L 414.989704 70.761921 
L 416.619496 77.636111 
L 419.87908 88.634814 
L 421.508872 92.759328 
L 423.138664 94.134166 
L 424.768456 84.510301 
L 426.398248 83.135463 
L 428.028039 83.135463 
L 429.657831 80.385787 
L 432.917415 77.636111 
L 434.547207 84.510301 
L 436.176999 87.259976 
L 437.806791 84.510301 
L 439.436583 76.261273 
L 442.696166 84.510301 
L 444.325958 83.135463 
L 445.95575 84.510301 
L 447.585542 88.634814 
L 449.215334 94.134166 
L 450.845126 91.38449 
L 452.474918 90.009652 
L 454.10471 91.38449 
L 455.734502 95.509004 
L 457.364294 96.883842 
L 460.623877 96.883842 
L 462.253669 95.509004 
L 465.513253 101.008356 
L 467.143045 102.383194 
L 468.772837 102.383194 
L 470.402629 98.25868 
L 472.032421 91.38449 
L 473.662212 90.009652 
L 475.292004 90.009652 
L 476.921796 87.259976 
L 478.551588 85.885138 
L 480.18138 87.259976 
L 481.811172 87.259976 
L 483.440964 94.134166 
L 485.070756 96.883842 
L 486.700548 102.383194 
L 488.33034 105.13287 
L 489.960131 110.632222 
L 491.589923 117.506411 
L 493.219715 113.381897 
L 494.849507 106.507708 
L 496.479299 101.008356 
L 498.109091 98.25868 
L 498.109091 98.25868 
" clip-path="url(#pddc86f1ea2)" style="fill: none; stroke: #ff7f0e; stroke-width: 1.5; stroke-linecap: round"/>
   </g>
   <g id="legend_1">
    <g id="patch_2">
     <path d="M 507.4 47.56 
L 511.4 47.56 
Q 513.4 47.56 513.4 45.56 
L 513.4 41.56 
Q 513.4 39.56 511.4 39.56 
L 507.4 39.56 
Q 505.4 39.56 505.4 41.56 
L 505.4 45.56 
Q 505.4 47.56 507.4 47.56 
z
" style="fill: #ffffff; opacity: 0.8; stroke: #cccccc; stroke-linejoin: miter"/>
    </g>
   </g>
  </g>
 </g>
 <defs>
  <clipPath id="pddc86f1ea2">
   <rect x="72" y="34.56" width="446.4" height="221.76"/>
  </clipPath>
 </defs>
</svg>
