<?xml version="1.0" encoding="utf-8" standalone="no"?>
<!DOCTYPE svg PUBLIC "-//W3C//DTD SVG 1.1//EN"
  "http://www.w3.org/Graphics/SVG/1.1/DTD/svg11.dtd">
<svg xmlns:xlink="http://www.w3.org/1999/xlink" width="576pt" height="288pt" viewBox="0 0 576 288" xmlns="http://www.w3.org/2000/svg" version="1.1">
 <metadata>
  <rdf:RDF xmlns:dc="http://purl.org/dc/elements/1.1/" xmlns:cc="http://creativecommons.org/ns#" xmlns:rdf="http://www.w3.org/1999/02/22-rdf-syntax-ns#">
   <cc:Work>
    <dc:type rdf:resource="http://purl.org/dc/dcmitype/StillImage"/>
    <dc:date>2023-07-30T17:44:59.838260</dc:date>
    <dc:format>image/svg+xml</dc:format>
    <dc:creator>
     <cc:Agent>
      <dc:title>Matplotlib v3.5.3, https://matplotlib.org/</dc:title>
     </cc:Agent>
    </dc:creator>
   </cc:Work>
  </rdf:RDF>
 </metadata>
 <defs>
  <style type="text/css">*{stroke-linejoin: round; stroke-linecap: butt}</style>
 </defs>
 <g id="figure_1">
  <g id="patch_1">
   <path d="M 0 288 
L 576 288 
L 576 0 
L 0 0 
z
" style="fill: #ffffff"/>
  </g>
  <g id="axes_1">
   <g id="line2d_1">
    <path d="M 92.290909 124.007152 
L 93.920701 124.007152 
L 95.550493 123.421416 
L 97.180285 123.128549 
L 102.06966 124.885755 
L 103.699452 123.714284 
L 105.329244 124.007152 
L 106.959036 123.421416 
L 108.588828 122.542813 
L 110.21862 124.30002 
L 111.848412 125.178623 
L 113.478204 124.007152 
L 116.737788 122.249946 
L 121.627163 123.128549 
L 123.256955 124.885755 
L 124.886747 122.835681 
L 126.516539 123.128549 
L 133.035706 123.128549 
L 134.665498 122.542813 
L 136.29529 122.542813 
L 137.925082 122.835681 
L 139.554874 122.835681 
L 141.184666 122.542813 
L 144.44425 120.785607 
L 146.074042 120.785607 
L 147.703834 121.371342 
L 149.333625 121.66421 
L 150.963417 121.66421 
L 154.223001 120.492739 
L 155.852793 118.442665 
L 157.482585 117.271194 
L 159.112377 116.978327 
L 160.742169 116.978327 
L 162.371961 114.635385 
L 164.001752 112.878179 
L 165.631544 112.585311 
L 167.261336 113.171046 
L 168.891128 115.22112 
L 170.52092 116.685459 
L 172.150712 116.978327 
L 173.780504 116.978327 
L 175.410296 116.392591 
L 178.66988 116.978327 
L 181.929463 119.321268 
L 183.559255 119.028401 
L 185.189047 119.028401 
L 186.818839 118.442665 
L 190.078423 120.199871 
L 191.708215 120.492739 
L 193.338007 121.957078 
L 194.967798 121.957078 
L 196.59759 123.421416 
L 198.227382 123.128549 
L 199.857174 123.421416 
L 203.116758 122.249946 
L 204.74655 122.249946 
L 206.376342 122.835681 
L 208.006134 123.128549 
L 209.635926 125.178623 
L 211.265717 124.885755 
L 212.895509 124.885755 
L 216.155093 123.128549 
L 217.784885 123.421416 
L 219.414677 124.30002 
L 221.044469 124.885755 
L 222.674261 123.421416 
L 224.304053 122.249946 
L 225.933844 122.542813 
L 227.563636 123.421416 
L 229.193428 125.47149 
L 230.82322 125.178623 
L 232.453012 125.47149 
L 234.082804 125.178623 
L 235.712596 125.47149 
L 237.342388 126.057226 
L 238.97218 120.199871 
L 240.601972 109.363766 
L 242.231763 96.477586 
L 243.861555 81.8342 
L 245.491347 63.969269 
L 247.121139 49.033016 
L 248.750931 44.64 
L 250.380723 52.254561 
L 252.010515 68.948021 
L 253.640307 84.177142 
L 255.270099 97.649057 
L 256.89989 107.60656 
L 258.529682 112.585311 
L 260.159474 115.22112 
L 261.789266 118.149797 
L 263.419058 118.442665 
L 265.04885 119.028401 
L 266.678642 120.199871 
L 268.308434 121.957078 
L 269.938226 122.835681 
L 271.568018 124.30002 
L 273.197809 126.057226 
L 274.827601 126.642961 
L 276.457393 128.1073 
L 282.976561 125.764358 
L 284.606353 126.350094 
L 287.865936 128.693035 
L 289.495728 128.985903 
L 292.755312 127.228697 
L 294.385104 128.400168 
L 296.014896 127.814432 
L 297.644688 128.400168 
L 299.27448 127.228697 
L 300.904272 127.521564 
L 302.534064 127.228697 
L 304.163855 127.521564 
L 305.793647 128.693035 
L 307.423439 129.278771 
L 309.053231 128.985903 
L 310.683023 127.521564 
L 312.312815 127.228697 
L 313.942607 127.814432 
L 315.572399 128.1073 
L 317.202191 128.1073 
L 320.461774 126.935829 
L 323.721358 126.935829 
L 325.35115 127.814432 
L 326.980942 128.1073 
L 328.610734 128.1073 
L 330.240526 127.814432 
L 331.870318 127.228697 
L 333.50011 126.935829 
L 336.759693 128.693035 
L 338.389485 128.1073 
L 341.649069 126.350094 
L 343.278861 126.057226 
L 346.538445 127.814432 
L 349.798028 126.057226 
L 351.42782 125.47149 
L 353.057612 125.764358 
L 354.687404 125.764358 
L 356.317196 126.350094 
L 357.946988 126.642961 
L 359.57678 125.178623 
L 361.206572 124.30002 
L 362.836364 124.30002 
L 364.466156 124.007152 
L 366.095947 124.592887 
L 367.725739 124.007152 
L 369.355531 123.128549 
L 370.985323 122.835681 
L 372.615115 123.714284 
L 374.244907 122.835681 
L 375.874699 123.714284 
L 379.134283 121.957078 
L 380.764074 120.492739 
L 382.393866 119.321268 
L 384.023658 118.442665 
L 385.65345 119.321268 
L 388.913034 118.149797 
L 390.542826 117.271194 
L 392.172618 116.685459 
L 393.80241 116.685459 
L 395.432202 116.978327 
L 397.061993 116.392591 
L 398.691785 115.22112 
L 400.321577 114.342517 
L 401.951369 113.171046 
L 403.581161 112.585311 
L 405.210953 112.878179 
L 406.840745 112.585311 
L 408.470537 111.120972 
L 411.73012 111.706708 
L 413.359912 111.120972 
L 414.989704 111.999575 
L 416.619496 111.41384 
L 418.249288 111.41384 
L 419.87908 111.706708 
L 421.508872 111.120972 
L 423.138664 111.999575 
L 424.768456 111.706708 
L 426.398248 111.706708 
L 428.028039 111.999575 
L 429.657831 112.585311 
L 431.287623 113.756782 
L 432.917415 114.342517 
L 434.547207 115.513988 
L 436.176999 115.806856 
L 437.806791 115.513988 
L 439.436583 114.928253 
L 441.066375 115.806856 
L 442.696166 117.564062 
L 444.325958 118.149797 
L 445.95575 118.442665 
L 447.585542 118.149797 
L 449.215334 118.149797 
L 450.845126 118.442665 
L 452.474918 120.199871 
L 455.734502 120.785607 
L 457.364294 120.492739 
L 458.994085 120.492739 
L 460.623877 120.785607 
L 462.253669 121.957078 
L 463.883461 122.542813 
L 465.513253 122.542813 
L 467.143045 122.249946 
L 468.772837 121.66421 
L 470.402629 121.66421 
L 472.032421 122.542813 
L 473.662212 123.128549 
L 475.292004 122.249946 
L 478.551588 121.66421 
L 480.18138 122.835681 
L 481.811172 122.835681 
L 483.440964 123.128549 
L 485.070756 122.249946 
L 486.700548 122.249946 
L 488.33034 121.66421 
L 489.960131 122.542813 
L 493.219715 121.957078 
L 494.849507 122.249946 
L 496.479299 121.957078 
L 498.109091 122.542813 
L 498.109091 122.542813 
" clip-path="url(#p9da7548875)" style="fill: none; stroke: #1f77b4; stroke-width: 1.5; stroke-linecap: round"/>
   </g>
   <g id="line2d_2">
    <path d="M 92.290909 197.082153 
L 93.920701 195.821696 
L 95.550493 193.300781 
L 97.180285 193.300781 
L 98.810077 189.519408 
L 100.439869 193.300781 
L 102.06966 195.821696 
L 103.699452 195.821696 
L 105.329244 194.561238 
L 106.959036 198.342611 
L 108.588828 199.603069 
L 110.21862 199.603069 
L 111.848412 203.384441 
L 113.478204 200.863526 
L 115.107996 202.123984 
L 116.737788 199.603069 
L 118.367579 200.863526 
L 119.997371 198.342611 
L 121.627163 200.863526 
L 123.256955 204.644899 
L 124.886747 198.342611 
L 126.516539 197.082153 
L 129.776123 202.123984 
L 131.405915 203.384441 
L 133.035706 210.947187 
L 134.665498 203.384441 
L 136.29529 204.644899 
L 137.925082 207.165814 
L 139.554874 204.644899 
L 141.184666 205.905357 
L 142.814458 204.644899 
L 144.44425 204.644899 
L 146.074042 207.165814 
L 149.333625 204.644899 
L 150.963417 207.165814 
L 152.593209 203.384441 
L 157.482585 199.603069 
L 159.112377 199.603069 
L 160.742169 194.561238 
L 162.371961 193.300781 
L 164.001752 193.300781 
L 165.631544 194.561238 
L 167.261336 192.040323 
L 168.891128 194.561238 
L 170.52092 195.821696 
L 172.150712 194.561238 
L 173.780504 195.821696 
L 175.410296 195.821696 
L 177.040088 198.342611 
L 178.66988 198.342611 
L 180.299671 202.123984 
L 183.559255 199.603069 
L 185.189047 202.123984 
L 186.818839 200.863526 
L 188.448631 204.644899 
L 190.078423 202.123984 
L 191.708215 203.384441 
L 196.59759 203.384441 
L 198.227382 204.644899 
L 199.857174 204.644899 
L 201.486966 205.905357 
L 203.116758 208.426272 
L 204.74655 209.686729 
L 206.376342 205.905357 
L 208.006134 208.426272 
L 209.635926 213.468102 
L 211.265717 210.947187 
L 212.895509 210.947187 
L 214.525301 212.207645 
L 216.155093 208.426272 
L 217.784885 212.207645 
L 219.414677 209.686729 
L 221.044469 209.686729 
L 222.674261 204.644899 
L 224.304053 203.384441 
L 225.933844 197.082153 
L 227.563636 203.384441 
L 229.193428 202.123984 
L 230.82322 203.384441 
L 232.453012 195.821696 
L 234.082804 192.040323 
L 235.712596 189.519408 
L 237.342388 195.821696 
L 238.97218 194.561238 
L 243.861555 194.561238 
L 245.491347 202.123984 
L 247.121139 214.72856 
L 248.750931 228.593594 
L 250.380723 241.19817 
L 252.010515 246.24 
L 253.640307 237.416797 
L 256.89989 214.72856 
L 258.529682 205.905357 
L 260.159474 200.863526 
L 261.789266 197.082153 
L 263.419058 197.082153 
L 265.04885 198.342611 
L 266.678642 202.123984 
L 268.308434 204.644899 
L 269.938226 204.644899 
L 271.568018 200.863526 
L 273.197809 202.123984 
L 274.827601 204.644899 
L 276.457393 210.947187 
L 278.087185 210.947187 
L 279.716977 207.165814 
L 281.346769 199.603069 
L 282.976561 202.123984 
L 286.236145 209.686729 
L 287.865936 209.686729 
L 289.495728 205.905357 
L 291.12552 198.342611 
L 292.755312 199.603069 
L 294.385104 199.603069 
L 296.014896 202.123984 
L 297.644688 197.082153 
L 299.27448 190.779865 
L 300.904272 192.040323 
L 302.534064 192.040323 
L 304.163855 194.561238 
L 305.793647 195.821696 
L 307.423439 193.300781 
L 309.053231 192.040323 
L 310.683023 188.25895 
L 312.312815 193.300781 
L 315.572399 198.342611 
L 317.202191 197.082153 
L 318.831982 198.342611 
L 320.461774 198.342611 
L 322.091566 195.821696 
L 323.721358 199.603069 
L 325.35115 199.603069 
L 326.980942 198.342611 
L 328.610734 198.342611 
L 330.240526 195.821696 
L 331.870318 199.603069 
L 333.50011 199.603069 
L 335.129901 203.384441 
L 336.759693 203.384441 
L 338.389485 202.123984 
L 340.019277 203.384441 
L 341.649069 205.905357 
L 343.278861 207.165814 
L 344.908653 205.905357 
L 348.168237 205.905357 
L 349.798028 204.644899 
L 351.42782 204.644899 
L 353.057612 207.165814 
L 354.687404 204.644899 
L 356.317196 204.644899 
L 357.946988 205.905357 
L 359.57678 204.644899 
L 361.206572 202.123984 
L 362.836364 202.123984 
L 366.095947 197.082153 
L 367.725739 197.082153 
L 369.355531 194.561238 
L 370.985323 194.561238 
L 372.615115 193.300781 
L 374.244907 198.342611 
L 379.134283 190.779865 
L 380.764074 192.040323 
L 382.393866 190.779865 
L 384.023658 194.561238 
L 387.283242 199.603069 
L 388.913034 194.561238 
L 390.542826 199.603069 
L 392.172618 197.082153 
L 393.80241 203.384441 
L 395.432202 202.123984 
L 397.061993 202.123984 
L 398.691785 200.863526 
L 400.321577 202.123984 
L 401.951369 200.863526 
L 403.581161 202.123984 
L 405.210953 205.905357 
L 406.840745 205.905357 
L 408.470537 204.644899 
L 410.100329 205.905357 
L 411.73012 209.686729 
L 413.359912 212.207645 
L 414.989704 215.989017 
L 416.619496 212.207645 
L 418.249288 210.947187 
L 419.87908 210.947187 
L 421.508872 208.426272 
L 424.768456 213.468102 
L 426.398248 212.207645 
L 429.657831 204.644899 
L 431.287623 202.123984 
L 432.917415 204.644899 
L 434.547207 203.384441 
L 436.176999 199.603069 
L 439.436583 194.561238 
L 442.696166 194.561238 
L 444.325958 195.821696 
L 445.95575 193.300781 
L 447.585542 189.519408 
L 449.215334 189.519408 
L 450.845126 188.25895 
L 452.474918 193.300781 
L 454.10471 194.561238 
L 455.734502 197.082153 
L 457.364294 193.300781 
L 458.994085 192.040323 
L 460.623877 195.821696 
L 462.253669 197.082153 
L 465.513253 197.082153 
L 467.143045 194.561238 
L 468.772837 189.519408 
L 470.402629 193.300781 
L 472.032421 198.342611 
L 475.292004 198.342611 
L 476.921796 195.821696 
L 478.551588 194.561238 
L 480.18138 195.821696 
L 481.811172 203.384441 
L 483.440964 205.905357 
L 485.070756 200.863526 
L 486.700548 200.863526 
L 488.33034 198.342611 
L 489.960131 199.603069 
L 491.589923 204.644899 
L 493.219715 205.905357 
L 494.849507 203.384441 
L 498.109091 193.300781 
L 498.109091 193.300781 
" clip-path="url(#p9da7548875)" style="fill: none; stroke: #ff7f0e; stroke-width: 1.5; stroke-linecap: round"/>
   </g>
   <g id="legend_1">
    <g id="patch_2">
     <path d="M 507.4 47.56 
L 511.4 47.56 
Q 513.4 47.56 513.4 45.56 
L 513.4 41.56 
Q 513.4 39.56 511.4 39.56 
L 507.4 39.56 
Q 505.4 39.56 505.4 41.56 
L 505.4 45.56 
Q 505.4 47.56 507.4 47.56 
z
" style="fill: #ffffff; opacity: 0.8; stroke: #cccccc; stroke-linejoin: miter"/>
    </g>
   </g>
  </g>
 </g>
 <defs>
  <clipPath id="p9da7548875">
   <rect x="72" y="34.56" width="446.4" height="221.76"/>
  </clipPath>
 </defs>
</svg>
