<?xml version="1.0" encoding="utf-8" standalone="no"?>
<!DOCTYPE svg PUBLIC "-//W3C//DTD SVG 1.1//EN"
  "http://www.w3.org/Graphics/SVG/1.1/DTD/svg11.dtd">
<svg xmlns:xlink="http://www.w3.org/1999/xlink" width="720pt" height="288pt" viewBox="0 0 720 288" xmlns="http://www.w3.org/2000/svg" version="1.1">
 <metadata>
  <rdf:RDF xmlns:dc="http://purl.org/dc/elements/1.1/" xmlns:cc="http://creativecommons.org/ns#" xmlns:rdf="http://www.w3.org/1999/02/22-rdf-syntax-ns#">
   <cc:Work>
    <dc:type rdf:resource="http://purl.org/dc/dcmitype/StillImage"/>
    <dc:date>2023-07-30T17:39:23.239119</dc:date>
    <dc:format>image/svg+xml</dc:format>
    <dc:creator>
     <cc:Agent>
      <dc:title>Matplotlib v3.5.3, https://matplotlib.org/</dc:title>
     </cc:Agent>
    </dc:creator>
   </cc:Work>
  </rdf:RDF>
 </metadata>
 <defs>
  <style type="text/css">*{stroke-linejoin: round; stroke-linecap: butt}</style>
 </defs>
 <g id="figure_1">
  <g id="patch_1">
   <path d="M 0 288 
L 720 288 
L 720 0 
L 0 0 
z
" style="fill: #ffffff"/>
  </g>
  <g id="axes_1">
   <g id="line2d_1">
    <path d="M 115.363636 236.999928 
L 127.239587 236.999928 
L 128.936151 235.540969 
L 130.632715 234.56833 
L 132.329279 234.56833 
L 135.722408 235.540969 
L 137.418972 235.054649 
L 140.812101 233.109371 
L 142.508665 232.623051 
L 144.20523 234.08201 
L 145.901794 234.56833 
L 147.598358 234.08201 
L 149.294922 232.623051 
L 150.991487 231.650412 
L 152.688051 231.650412 
L 154.384615 232.136732 
L 156.08118 231.650412 
L 157.777744 232.136732 
L 159.474308 231.164093 
L 161.170873 228.246175 
L 162.867437 225.814577 
L 164.564001 222.89666 
L 166.260566 222.41034 
L 167.95713 219.006103 
L 169.653694 219.006103 
L 171.350258 219.492422 
L 173.046823 222.89666 
L 174.743387 222.89666 
L 176.439951 223.869299 
L 178.136516 223.869299 
L 179.83308 223.382979 
L 181.529644 223.869299 
L 183.226209 223.869299 
L 184.922773 224.841938 
L 186.619337 227.759856 
L 190.012466 227.759856 
L 191.70903 228.732495 
L 193.405594 229.218814 
L 195.102159 230.191453 
L 196.798723 233.109371 
L 198.495287 234.56833 
L 200.191852 235.540969 
L 201.888416 234.56833 
L 203.58498 234.56833 
L 205.281545 234.08201 
L 206.978109 236.513608 
L 208.674673 237.486247 
L 212.067802 234.56833 
L 213.764366 233.595691 
L 215.46093 236.027289 
L 217.157495 236.999928 
L 218.854059 237.486247 
L 220.550623 237.486247 
L 222.247188 237.972567 
L 223.943752 237.486247 
L 225.640316 237.486247 
L 227.336881 239.431526 
L 229.033445 238.458887 
L 230.730009 236.999928 
L 232.426573 235.054649 
L 234.123138 235.054649 
L 235.819702 236.027289 
L 237.516266 239.431526 
L 239.212831 242.349443 
L 240.909395 242.349443 
L 242.605959 241.863124 
L 244.302524 237.486247 
L 245.999088 223.869299 
L 247.695652 204.416515 
L 249.392216 179.614216 
L 251.088781 151.893999 
L 252.785345 120.769545 
L 254.481909 97.912525 
L 256.178474 99.857803 
L 257.875038 124.173783 
L 259.571602 156.757195 
L 261.268167 183.018453 
L 262.964731 204.416515 
L 264.661295 217.547144 
L 266.35786 221.437701 
L 268.054424 226.787216 
L 269.750988 231.164093 
L 273.144117 231.164093 
L 274.840681 231.650412 
L 276.537245 232.623051 
L 278.23381 236.027289 
L 279.930374 238.458887 
L 281.626938 238.458887 
L 283.323503 240.890484 
L 285.020067 241.863124 
L 286.716631 243.808402 
L 288.413196 245.267361 
L 290.10976 245.75368 
L 291.806324 242.835763 
L 293.502888 243.322082 
L 295.199453 242.835763 
L 296.896017 243.808402 
L 298.592581 246.24 
L 300.289146 245.267361 
L 301.98571 243.808402 
L 303.682274 244.294722 
L 305.378839 243.808402 
L 307.075403 244.294722 
L 310.468531 246.24 
L 312.165096 244.781041 
L 313.86166 243.808402 
L 315.558224 244.781041 
L 317.254789 245.267361 
L 318.951353 244.781041 
L 320.647917 243.808402 
L 322.344482 244.294722 
L 324.041046 243.808402 
L 325.73761 244.294722 
L 327.434175 244.294722 
L 329.130739 245.75368 
L 330.827303 243.808402 
L 332.523867 243.808402 
L 334.220432 242.349443 
L 335.916996 241.863124 
L 339.310125 244.781041 
L 344.399818 241.863124 
L 346.096382 242.349443 
L 349.48951 244.294722 
L 351.186075 243.322082 
L 354.579203 240.404165 
L 357.972332 242.349443 
L 359.668896 243.808402 
L 361.365461 244.294722 
L 363.062025 240.890484 
L 364.758589 239.917845 
L 366.455154 240.404165 
L 368.151718 239.917845 
L 369.848282 238.945206 
L 371.544846 237.486247 
L 374.937975 237.486247 
L 376.634539 236.513608 
L 378.331104 237.486247 
L 380.027668 237.486247 
L 381.724232 235.054649 
L 383.420797 234.56833 
L 385.117361 233.595691 
L 388.51049 233.595691 
L 390.207054 233.109371 
L 391.903618 231.164093 
L 393.600182 229.705134 
L 395.296747 229.218814 
L 396.993311 229.218814 
L 398.689875 228.246175 
L 400.38644 226.787216 
L 402.083004 224.841938 
L 403.779568 223.869299 
L 405.476133 223.382979 
L 408.869261 220.465062 
L 410.565825 220.465062 
L 415.655518 217.547144 
L 417.352083 216.088185 
L 419.048647 215.601866 
L 420.745211 216.574505 
L 422.441776 215.601866 
L 424.13834 214.142907 
L 425.834904 212.197629 
L 429.228033 215.115546 
L 432.621161 215.115546 
L 434.317726 214.142907 
L 436.01429 214.142907 
L 437.710854 216.088185 
L 439.407419 219.006103 
L 442.800547 219.978742 
L 444.497112 219.978742 
L 446.193676 220.951381 
L 447.89024 223.382979 
L 449.586804 225.328258 
L 452.979933 227.273536 
L 456.373062 228.246175 
L 463.159319 232.136732 
L 464.855883 231.650412 
L 466.552448 233.109371 
L 468.249012 234.08201 
L 469.945576 235.540969 
L 471.64214 236.513608 
L 473.338705 235.054649 
L 475.035269 235.054649 
L 476.731833 234.08201 
L 478.428398 233.595691 
L 480.124962 236.027289 
L 481.821526 237.972567 
L 483.518091 237.972567 
L 485.214655 238.945206 
L 486.911219 236.999928 
L 488.607784 236.999928 
L 490.304348 235.540969 
L 492.000912 237.486247 
L 493.697476 237.972567 
L 495.394041 236.513608 
L 497.090605 236.999928 
L 498.787169 236.999928 
L 500.483734 237.486247 
L 503.876862 237.486247 
L 505.573427 236.999928 
L 507.269991 235.540969 
L 512.359684 238.458887 
L 519.145941 234.56833 
L 520.842505 235.054649 
L 522.53907 234.56833 
L 524.235634 235.054649 
L 527.628763 234.08201 
L 529.325327 235.054649 
L 531.021891 236.999928 
L 532.718455 237.486247 
L 534.41502 235.540969 
L 536.111584 234.56833 
L 537.808148 233.109371 
L 539.504713 233.109371 
L 541.201277 232.623051 
L 542.897841 234.56833 
L 544.594406 235.054649 
L 546.29097 235.054649 
L 547.987534 233.109371 
L 549.684099 231.650412 
L 553.077227 234.56833 
L 554.773791 235.054649 
L 556.470356 235.054649 
L 558.16692 233.595691 
L 561.560049 233.595691 
L 563.256613 235.054649 
L 564.953177 233.595691 
L 566.649742 233.595691 
L 568.346306 234.08201 
L 570.04287 233.595691 
L 573.435999 235.540969 
L 575.132563 234.56833 
L 576.829127 234.08201 
L 580.222256 234.08201 
L 581.91882 236.513608 
L 583.615385 236.513608 
L 587.008513 233.595691 
L 588.705078 233.109371 
L 590.401642 234.56833 
L 592.098206 234.56833 
L 593.79477 235.540969 
L 595.491335 235.540969 
L 597.187899 236.027289 
L 598.884463 234.56833 
L 600.581028 234.56833 
L 603.974156 236.513608 
L 605.670721 236.999928 
L 607.367285 236.027289 
L 609.063849 234.56833 
L 610.760413 235.540969 
L 614.153542 234.56833 
L 615.850106 235.054649 
L 617.546671 235.054649 
L 619.243235 234.08201 
L 620.939799 234.08201 
L 622.636364 234.56833 
L 622.636364 234.56833 
" clip-path="url(#p0cef121456)" style="fill: none; stroke: #1f77b4; stroke-width: 1.5; stroke-linecap: round"/>
   </g>
   <g id="line2d_2">
    <path d="M 115.363636 167.15969 
L 128.936151 167.15969 
L 132.329279 163.0757 
L 134.025844 158.991711 
L 135.722408 157.970713 
L 137.418972 158.991711 
L 139.115537 161.033705 
L 140.812101 165.117695 
L 142.508665 165.117695 
L 144.20523 164.096698 
L 149.294922 164.096698 
L 150.991487 163.0757 
L 152.688051 163.0757 
L 154.384615 160.012708 
L 156.08118 158.991711 
L 157.777744 160.012708 
L 159.474308 165.117695 
L 162.867437 167.15969 
L 164.564001 164.096698 
L 166.260566 163.0757 
L 167.95713 165.117695 
L 169.653694 166.138692 
L 171.350258 165.117695 
L 173.046823 160.012708 
L 174.743387 156.949716 
L 176.439951 160.012708 
L 178.136516 160.012708 
L 179.83308 164.096698 
L 181.529644 166.138692 
L 183.226209 167.15969 
L 184.922773 165.117695 
L 188.315901 165.117695 
L 190.012466 164.096698 
L 191.70903 166.138692 
L 193.405594 162.054703 
L 195.102159 160.012708 
L 198.495287 160.012708 
L 200.191852 166.138692 
L 201.888416 166.138692 
L 203.58498 168.180687 
L 205.281545 164.096698 
L 206.978109 163.0757 
L 208.674673 165.117695 
L 210.371237 164.096698 
L 212.067802 166.138692 
L 213.764366 164.096698 
L 215.46093 160.012708 
L 217.157495 158.991711 
L 220.550623 163.0757 
L 222.247188 166.138692 
L 225.640316 166.138692 
L 227.336881 164.096698 
L 229.033445 164.096698 
L 232.426573 162.054703 
L 234.123138 158.991711 
L 235.819702 154.907721 
L 239.212831 156.949716 
L 240.909395 158.991711 
L 242.605959 158.991711 
L 244.302524 157.970713 
L 245.999088 150.823731 
L 247.695652 154.907721 
L 249.392216 154.907721 
L 251.088781 155.928718 
L 252.785345 154.907721 
L 254.481909 152.865726 
L 256.178474 147.760739 
L 257.875038 149.802734 
L 261.268167 157.970713 
L 262.964731 160.012708 
L 264.661295 163.0757 
L 266.35786 161.033705 
L 268.054424 161.033705 
L 271.447552 163.0757 
L 273.144117 163.0757 
L 274.840681 158.991711 
L 276.537245 161.033705 
L 278.23381 161.033705 
L 279.930374 167.15969 
L 281.626938 174.306672 
L 283.323503 173.285674 
L 285.020067 169.201685 
L 286.716631 169.201685 
L 288.413196 167.15969 
L 291.806324 167.15969 
L 293.502888 170.222682 
L 295.199453 167.15969 
L 296.896017 165.117695 
L 298.592581 165.117695 
L 300.289146 167.15969 
L 301.98571 171.24368 
L 305.378839 171.24368 
L 307.075403 168.180687 
L 308.771967 167.15969 
L 310.468531 170.222682 
L 312.165096 170.222682 
L 313.86166 172.264677 
L 315.558224 168.180687 
L 318.951353 166.138692 
L 320.647917 173.285674 
L 322.344482 176.348667 
L 324.041046 177.369664 
L 325.73761 175.327669 
L 327.434175 172.264677 
L 329.130739 174.306672 
L 330.827303 177.369664 
L 334.220432 179.411659 
L 335.916996 177.369664 
L 337.61356 170.222682 
L 339.310125 156.949716 
L 341.006689 141.634754 
L 346.096382 63.017953 
L 347.792946 45.660997 
L 349.48951 44.64 
L 351.186075 63.017953 
L 352.882639 93.647876 
L 356.275768 161.033705 
L 357.972332 183.495649 
L 359.668896 198.81061 
L 361.365461 198.81061 
L 363.062025 190.64263 
L 364.758589 179.411659 
L 366.455154 169.201685 
L 368.151718 168.180687 
L 369.848282 168.180687 
L 371.544846 172.264677 
L 373.241411 172.264677 
L 374.937975 170.222682 
L 376.634539 169.201685 
L 378.331104 169.201685 
L 380.027668 171.24368 
L 381.724232 174.306672 
L 383.420797 173.285674 
L 385.117361 173.285674 
L 386.813925 174.306672 
L 390.207054 180.432656 
L 391.903618 178.390661 
L 393.600182 173.285674 
L 395.296747 171.24368 
L 396.993311 171.24368 
L 398.689875 175.327669 
L 400.38644 176.348667 
L 402.083004 173.285674 
L 403.779568 175.327669 
L 405.476133 179.411659 
L 407.172697 180.432656 
L 408.869261 178.390661 
L 410.565825 177.369664 
L 412.26239 174.306672 
L 415.655518 178.390661 
L 417.352083 176.348667 
L 419.048647 178.390661 
L 420.745211 176.348667 
L 422.441776 177.369664 
L 424.13834 182.474651 
L 425.834904 186.558641 
L 427.531469 188.600636 
L 429.228033 188.600636 
L 430.924597 185.537643 
L 432.621161 186.558641 
L 434.317726 186.558641 
L 436.01429 188.600636 
L 437.710854 188.600636 
L 439.407419 185.537643 
L 441.103983 186.558641 
L 442.800547 189.621633 
L 444.497112 190.64263 
L 446.193676 194.72662 
L 452.979933 194.72662 
L 454.676497 196.768615 
L 456.373062 199.831607 
L 458.069626 195.747618 
L 459.76619 194.72662 
L 461.462755 196.768615 
L 463.159319 196.768615 
L 464.855883 199.831607 
L 466.552448 201.873602 
L 468.249012 200.852605 
L 469.945576 202.894599 
L 471.64214 201.873602 
L 473.338705 203.915597 
L 475.035269 203.915597 
L 476.731833 202.894599 
L 478.428398 198.81061 
L 480.124962 196.768615 
L 481.821526 199.831607 
L 483.518091 200.852605 
L 485.214655 200.852605 
L 490.304348 194.72662 
L 492.000912 195.747618 
L 495.394041 193.705623 
L 497.090605 186.558641 
L 498.787169 180.432656 
L 500.483734 177.369664 
L 502.180298 175.327669 
L 503.876862 175.327669 
L 505.573427 172.264677 
L 507.269991 170.222682 
L 508.966555 167.15969 
L 512.359684 169.201685 
L 514.056248 172.264677 
L 515.752812 171.24368 
L 519.145941 163.0757 
L 522.53907 165.117695 
L 524.235634 169.201685 
L 525.932198 167.15969 
L 527.628763 164.096698 
L 531.021891 162.054703 
L 532.718455 162.054703 
L 534.41502 166.138692 
L 536.111584 163.0757 
L 537.808148 163.0757 
L 539.504713 158.991711 
L 541.201277 157.970713 
L 542.897841 162.054703 
L 544.594406 165.117695 
L 546.29097 167.15969 
L 547.987534 166.138692 
L 549.684099 164.096698 
L 551.380663 166.138692 
L 553.077227 166.138692 
L 554.773791 168.180687 
L 556.470356 167.15969 
L 558.16692 161.033705 
L 559.863484 161.033705 
L 561.560049 158.991711 
L 563.256613 161.033705 
L 564.953177 162.054703 
L 566.649742 168.180687 
L 568.346306 169.201685 
L 570.04287 166.138692 
L 571.739434 168.180687 
L 573.435999 168.180687 
L 575.132563 167.15969 
L 576.829127 167.15969 
L 578.525692 165.117695 
L 580.222256 160.012708 
L 581.91882 158.991711 
L 583.615385 161.033705 
L 585.311949 164.096698 
L 588.705078 172.264677 
L 590.401642 167.15969 
L 592.098206 166.138692 
L 593.79477 166.138692 
L 597.187899 170.222682 
L 600.581028 164.096698 
L 602.277592 158.991711 
L 603.974156 157.970713 
L 605.670721 161.033705 
L 607.367285 167.15969 
L 609.063849 169.201685 
L 610.760413 167.15969 
L 612.456978 168.180687 
L 614.153542 165.117695 
L 615.850106 168.180687 
L 619.243235 168.180687 
L 620.939799 164.096698 
L 622.636364 161.033705 
L 622.636364 161.033705 
" clip-path="url(#p0cef121456)" style="fill: none; stroke: #ff7f0e; stroke-width: 1.5; stroke-linecap: round"/>
   </g>
   <g id="legend_1">
    <g id="patch_2">
     <path d="M 578.61875 71.91625 
L 641 71.91625 
Q 643 71.91625 643 69.91625 
L 643 41.56 
Q 643 39.56 641 39.56 
L 578.61875 39.56 
Q 576.61875 39.56 576.61875 41.56 
L 576.61875 69.91625 
Q 576.61875 71.91625 578.61875 71.91625 
z
" style="fill: #ffffff; opacity: 0.8; stroke: #cccccc; stroke-linejoin: miter"/>
    </g>
    <g id="line2d_3">
     <path d="M 580.61875 47.658437 
L 590.61875 47.658437 
L 600.61875 47.658437 
" style="fill: none; stroke: #1f77b4; stroke-width: 1.5; stroke-linecap: round"/>
    </g>
    <g id="text_1">
     <!-- Line 1 -->
     <g style="fill: #262626" transform="translate(608.61875 51.158437)scale(0.1 -0.1)">
      <defs>
       <path id="DejaVuSans-4c" d="M 628 4666 
L 1259 4666 
L 1259 531 
L 3531 531 
L 3531 0 
L 628 0 
L 628 4666 
z
" transform="scale(0.015625)"/>
       <path id="DejaVuSans-69" d="M 603 3500 
L 1178 3500 
L 1178 0 
L 603 0 
L 603 3500 
z
M 603 4863 
L 1178 4863 
L 1178 4134 
L 603 4134 
L 603 4863 
z
" transform="scale(0.015625)"/>
       <path id="DejaVuSans-6e" d="M 3513 2113 
L 3513 0 
L 2938 0 
L 2938 2094 
Q 2938 2591 2744 2837 
Q 2550 3084 2163 3084 
Q 1697 3084 1428 2787 
Q 1159 2491 1159 1978 
L 1159 0 
L 581 0 
L 581 3500 
L 1159 3500 
L 1159 2956 
Q 1366 3272 1645 3428 
Q 1925 3584 2291 3584 
Q 2894 3584 3203 3211 
Q 3513 2838 3513 2113 
z
" transform="scale(0.015625)"/>
       <path id="DejaVuSans-65" d="M 3597 1894 
L 3597 1613 
L 953 1613 
Q 991 1019 1311 708 
Q 1631 397 2203 397 
Q 2534 397 2845 478 
Q 3156 559 3463 722 
L 3463 178 
Q 3153 47 2828 -22 
Q 2503 -91 2169 -91 
Q 1331 -91 842 396 
Q 353 884 353 1716 
Q 353 2575 817 3079 
Q 1281 3584 2069 3584 
Q 2775 3584 3186 3129 
Q 3597 2675 3597 1894 
z
M 3022 2063 
Q 3016 2534 2758 2815 
Q 2500 3097 2075 3097 
Q 1594 3097 1305 2825 
Q 1016 2553 972 2059 
L 3022 2063 
z
" transform="scale(0.015625)"/>
       <path id="DejaVuSans-20" transform="scale(0.015625)"/>
       <path id="DejaVuSans-31" d="M 794 531 
L 1825 531 
L 1825 4091 
L 703 3866 
L 703 4441 
L 1819 4666 
L 2450 4666 
L 2450 531 
L 3481 531 
L 3481 0 
L 794 0 
L 794 531 
z
" transform="scale(0.015625)"/>
      </defs>
      <use xlink:href="#DejaVuSans-4c"/>
      <use xlink:href="#DejaVuSans-69" x="55.712891"/>
      <use xlink:href="#DejaVuSans-6e" x="83.496094"/>
      <use xlink:href="#DejaVuSans-65" x="146.875"/>
      <use xlink:href="#DejaVuSans-20" x="208.398438"/>
      <use xlink:href="#DejaVuSans-31" x="240.185547"/>
     </g>
    </g>
    <g id="line2d_4">
     <path d="M 580.61875 62.336562 
L 590.61875 62.336562 
L 600.61875 62.336562 
" style="fill: none; stroke: #ff7f0e; stroke-width: 1.5; stroke-linecap: round"/>
    </g>
    <g id="text_2">
     <!-- Line 2 -->
     <g style="fill: #262626" transform="translate(608.61875 65.836562)scale(0.1 -0.1)">
      <defs>
       <path id="DejaVuSans-32" d="M 1228 531 
L 3431 531 
L 3431 0 
L 469 0 
L 469 531 
Q 828 903 1448 1529 
Q 2069 2156 2228 2338 
Q 2531 2678 2651 2914 
Q 2772 3150 2772 3378 
Q 2772 3750 2511 3984 
Q 2250 4219 1831 4219 
Q 1534 4219 1204 4116 
Q 875 4013 500 3803 
L 500 4441 
Q 881 4594 1212 4672 
Q 1544 4750 1819 4750 
Q 2544 4750 2975 4387 
Q 3406 4025 3406 3419 
Q 3406 3131 3298 2873 
Q 3191 2616 2906 2266 
Q 2828 2175 2409 1742 
Q 1991 1309 1228 531 
z
" transform="scale(0.015625)"/>
      </defs>
      <use xlink:href="#DejaVuSans-4c"/>
      <use xlink:href="#DejaVuSans-69" x="55.712891"/>
      <use xlink:href="#DejaVuSans-6e" x="83.496094"/>
      <use xlink:href="#DejaVuSans-65" x="146.875"/>
      <use xlink:href="#DejaVuSans-20" x="208.398438"/>
      <use xlink:href="#DejaVuSans-32" x="240.185547"/>
     </g>
    </g>
   </g>
  </g>
 </g>
 <defs>
  <clipPath id="p0cef121456">
   <rect x="90" y="34.56" width="558" height="221.76"/>
  </clipPath>
 </defs>
</svg>
